<?xml version="1.0" encoding="UTF-8"?>
<svg id="Layer_1" data-name="Layer 1" xmlns="http://www.w3.org/2000/svg" viewBox="0 0 527 402">
  <defs>
    <style>
      .cls-1 {
        fill: #367d3c;
        font-family: Carrotflower, Carrotflower;
        font-size: 42.34px;
      }

      .cls-2 {
        opacity: .44;
      }

      .cls-2, .cls-3, .cls-4, .cls-5, .cls-6, .cls-7, .cls-8 {
        stroke-width: 0px;
      }

      .cls-2, .cls-3, .cls-6 {
        fill: #d7cd26;
      }

      .cls-3 {
        opacity: .25;
      }

      .cls-4 {
        fill: #4f392a;
      }

      .cls-5 {
        fill: #136439;
      }

      .cls-7 {
        fill: #a97c50;
      }

      .cls-8 {
        fill: #84bac9;
      }

      .cls-9 {
        fill: #724321;
        stroke: #a97c50;
        stroke-miterlimit: 10;
        stroke-width: .38px;
      }
    </style>
  </defs>
  <rect class="cls-8" width="527" height="402"/>
  <g>
    <polygon class="cls-4" points="227.68 328.24 207.38 314.93 247.9 259.03 286.44 209.9 313.33 154.81 333.63 168.11 292.82 229.79 257.87 272.83 227.68 328.24"/>
    <polygon class="cls-4" points="323.74 315.68 303.27 328.74 268.39 269.19 238.94 214.18 199.27 167.36 219.73 154.3 259.8 216.46 285.12 265.73 323.74 315.68"/>
    <path class="cls-5" d="M391.41,182.24c1-.4,1.8-1.01,2.37-1.81,3-4.26-1.62-12.63-10.31-18.7-2.28-1.6-4.61-2.87-6.86-3.8,1.47-2.54,1.39-5.35-.29-6.52-1.19-.84-2.9-.64-4.46.36.63-4.69-1.17-9.41-5.1-12.16-2.36-1.65-5.13-2.34-7.88-2.15,1.75-2.51,2.33-5.47,1.85-8.23h0c-.46-2.68-1.94-5.15-4.31-6.8-1.14-.8-2.39-1.34-3.68-1.63-1.44-.33-2.93-.35-4.37-.08.04-1.73-.16-3.45-.57-5.12h0c-1.09-4.38-3.7-8.38-7.7-11.17-1.7-1.19-3.52-2.07-5.41-2.65-5.69-1.76-11.9-.82-16.79,2.51-.97-1.5-2.28-2.88-3.9-4.01-5.59-3.9-12.7-3.41-15.89,1.11-.85,1.2-1.34,2.59-1.48,4.04v.02c-.04.47-.05.95-.03,1.43-5.68-.42-11.13,1.75-14.34,6.28-3.68,5.22-3.38,12.16.16,17.83-.99.57-1.9,1.39-2.62,2.42-.31.45-.58.91-.8,1.39h0c-1.41,3.08-.79,6.55,1.66,8.32.03.02.05.04.08.06,1.88,1.31,4.33,1.32,6.47.24-.28,7.42,3.65,15.32,10.96,20.42,2.77,1.94,5.75,3.28,8.78,4.05.71.18,1.43.33,2.15.45,1.37,2.37,3.26,4.48,5.66,6.15,1.71,1.19,3.55,2.08,5.44,2.65h0c2.26.7,4.6.96,6.92.82,2.89-.17,5.73-.97,8.32-2.35-1.84,3.53-1.92,7.05,0,8.39,1.67,1.16,4.38.36,6.85-1.8.16.51.34,1.03.55,1.55,2.69,6.61,8.68,11.27,13.38,10.4,1.16-.21,2.13-.73,2.9-1.51,1.09.88,2.24,1.73,3.43,2.57,14.17,9.9,29.44,12.58,34.09,5.98,3.07-4.35.76-11.64-5.23-18.95Z"/>
    <path class="cls-5" d="M257.65,138.58c-.73-1.03-1.63-1.84-2.62-2.42,3.54-5.68,3.83-12.62.15-17.83-3.2-4.54-8.66-6.71-14.34-6.28.04-.6.01-1.21-.07-1.8h0c-.19-1.32-.66-2.58-1.44-3.69-3.18-4.5-10.26-5-15.84-1.13-.01,0-.03.02-.04.03-1.62,1.13-2.94,2.51-3.91,4.01-2.13-1.45-4.52-2.45-7-2.96-5.1-1.07-10.6-.11-15.2,3.11-5.52,3.86-8.42,10.05-8.28,16.29-2.73-.51-5.63,0-8.05,1.7-4.82,3.36-5.92,10.08-2.46,15.02-2.75-.17-5.51.51-7.87,2.16-3.94,2.74-5.73,7.47-5.1,12.16-1.57-.99-3.28-1.19-4.47-.36-1.68,1.17-1.76,3.98-.29,6.52-2.25.93-4.58,2.21-6.85,3.8-8.7,6.08-13.32,14.45-10.32,18.7.58.81,1.38,1.41,2.37,1.81-5.99,7.3-8.29,14.6-5.22,18.95,4.65,6.6,19.92,3.92,34.09-5.99,1.19-.83,2.33-1.69,3.43-2.56.77.77,1.74,1.3,2.9,1.51.18.03.37.06.55.08,4.62.42,10.26-4.13,12.84-10.48.21-.52.4-1.04.55-1.55.31.27.62.52.94.75,2.19,1.58,4.45,2.06,5.9,1.05,1.92-1.35,1.84-4.86,0-8.39,3.28,1.75,6.97,2.57,10.63,2.35,3.5-.2,6.98-1.33,10.05-3.47.8-.56,1.55-1.17,2.24-1.83h0c1.36-1.29,2.51-2.74,3.42-4.32,1.09-.18,2.19-.44,3.28-.77,2.63-.8,5.22-2.04,7.65-3.73,7.3-5.1,11.23-13,10.95-20.42,2.15,1.07,4.6,1.07,6.48-.25,2.9-2.03,3.32-6.4.94-9.77Z"/>
    <g>
      <path class="cls-7" d="M275.52,305.6c-.04-5.47-.45-10.94-.49-16.42-.04-4.61.23-9.21.41-13.82.14-3.64-.02-7.25-.86-10.81-.34-1.44-.67-2.88-.89-4.34-.29-1.94-.08-3.33.5-5.23.05-.15-.75.05-1.34.22.04-.14.08-.29.13-.43.15-.51-.99-.05-1.16,0-.43.13-1.58.33-1.72.84-.18.66-.5,1.48-.58,2.17-.19,1.62.2,3.45.59,5.01.41,1.66,1.06,3.26,1.46,4.91.75,3.12.79,6.37.65,9.55-.15,3.25-.34,6.47-.38,9.72-.08,5.5.17,10.98.35,16.48.15,2.74.18,5.47.07,8.21.22,1.79.12,3.55-.3,5.28-.4,2.01-1.02,3.9-1.38,5.93-.05.27.18.2.41.07-.02.17-.05.33-.07.5-.1.59,1.03-.4.98-.36.46-.36,2.01-1.31,2.12-1.96.26-1.66.66-3.25,1-4.9.72-3.47.54-7.13.52-10.64Z"/>
      <path class="cls-7" d="M260.78,305.22c-.06-5.46-.45-10.92-.51-16.38-.05-4.6.17-9.2.31-13.79.11-3.62-.05-7.21-.83-10.76-.31-1.43-.62-2.85-.82-4.3-.27-1.91-.08-3.34.42-5.21.04-.15-.72.08-1.31.27.03-.15.05-.28.08-.43.13-.51-1.02,0-1.18.07-.43.15-1.6.41-1.71.93-.15.67-.42,1.47-.48,2.15-.14,1.6.24,3.36.62,4.9.39,1.62.99,3.19,1.36,4.82.71,3.1.74,6.34.63,9.5-.12,3.24-.28,6.46-.3,9.71-.04,5.48.21,10.95.39,16.43.15,2.73.18,5.46.1,8.19.2,1.79.12,3.55-.25,5.28-.35,2.01-.91,3.93-1.22,5.96-.04.27.18.2.39.07-.02.17-.05.33-.06.5-.09.59,1.02-.41.98-.38.45-.36,2-1.34,2.09-1.99.23-1.66.58-3.26.88-4.91.63-3.48.46-7.11.42-10.63Z"/>
      <polygon class="cls-9" points="277.99 317.3 256.56 316.89 256.61 312.77 278.05 313.19 277.99 317.3"/>
    </g>
    <path class="cls-2" d="M327.16,376.43c-19.18,7.2-39.94,11.14-61.6,11.14-30.68,0-59.54-7.89-84.69-21.77l40.42-172.44h0s3.64-15.51,3.64-15.51h0s2.66-11.35,2.66-11.35h0s13.19-56.25,13.19-56.25h0s8.22-35.09,8.22-35.09l2.26-14.76,1.59-10.38h8.98l2.31,10.98,2.78,13.19,12.08,60.6h0s1.66,8.32,1.66,8.32l11.13,55.85,4.96,24.9,15.29,76.68h0s4,20.06,4,20.06h0s11.13,55.84,11.13,55.84Z"/>
    <path class="cls-2" d="M233.75,34.58l-3.48,2.3-2.98,2.53-128.43,109.28c6.28-17.83,15.29-34.34,26.52-49.04,21.66-28.37,51.56-49.98,86.09-61.17,1.29-.42,2.6-.82,3.9-1.21,3.42-1.02,6.88-1.94,10.38-2.74,2.55-.6,5.13-1.13,7.73-1.62l.27,1.67Z"/>
    <path class="cls-2" d="M279.18,26.57h-.24c.07-.1.14-.19.22-.27,0,.09,0,.18.01.27Z"/>
    <path class="cls-2" d="M438.25,169.62L290.39,41.3l-10.33-8.96c-.36-.21-.67-.47-.93-.77-.3-.33-.53-.71-.7-1.12,4.98.36,9.91.92,14.78,1.7,2.07.33,4.13.69,6.17,1.09.34.06.67.13,1,.2,66.54,13.42,119.61,64.53,136.48,130.38.49,1.92.95,3.86,1.38,5.8Z"/>
    <path class="cls-2" d="M442.4,215.27h0c-1.9,53.72-27.25,101.39-66.01,132.89l-53.72-163.49-2.48-7.53h0s-7.15-21.76-7.15-21.76l-16.42-49.96v-.02l-13.06-39.73-3.88-11.83,5.4-4.35,6.89,7.26,42.71,45.01,13.11,13.82h0s4.94,5.2,4.94,5.2l7.99,8.42h0s81.67,86.06,81.67,86.06Z"/>
    <path class="cls-3" d="M241.86,49.97l-1.79,5.41-2.07,6.23-13.87,41.87-.64,1.94-19.52,58.93-2.04,6.15-5.84,17.62-2.74,8.26-47.37,144.17c-2.84-2.62-5.6-5.35-8.27-8.17-28.73-30.32-47-70.85-48.94-115.67,6.55-7.13,11.42-12.47,11.42-12.66h0S230.24,52.87,230.24,52.87l3.05-3.55,3.17-3.68,5.39,4.34Z"/>
    <text class="cls-1" transform="translate(117.12 294.53) rotate(54.53) scale(.99 1)"><tspan x="0" y="0">~</tspan></text>
    <text class="cls-1" transform="translate(131 313.45) rotate(48.33) scale(.99 1)"><tspan x="0" y="0"> </tspan></text>
    <text class="cls-1" transform="translate(141.27 325.41) rotate(41.1) scale(.99 1)"><tspan x="0" y="0">T</tspan></text>
    <text class="cls-1" transform="translate(163.86 344.35) rotate(33.83) scale(.99 1)"><tspan x="0" y="0">r</tspan></text>
    <text class="cls-1" transform="translate(176.88 353.61) rotate(25.76) scale(.99 1)"><tspan x="0" y="0">ee</tspan></text>
    <text class="cls-1" transform="translate(207.79 367.76) rotate(16.48) scale(.99 1)"><tspan x="0" y="0">h</tspan></text>
    <text class="cls-1" transform="translate(228.89 373.78) rotate(9.72) scale(.99 1)"><tspan x="0" y="0">o</tspan></text>
    <text class="cls-1" transform="translate(247.82 376.98) rotate(2.96) scale(.99 1)"><tspan x="0" y="0">u</tspan></text>
    <text class="cls-1" transform="translate(269.83 377.83) rotate(-2.91) scale(.99 1)"><tspan x="0" y="0">s</tspan></text>
    <text class="cls-1" transform="translate(284.01 377.12) rotate(-8.09) scale(.99 1)"><tspan x="0" y="0">e</tspan></text>
    <text class="cls-1" transform="translate(301.56 374.48) rotate(-13.49) scale(.99 1)"><tspan x="0" y="0"> </tspan></text>
    <text class="cls-1" transform="translate(317.03 371.06) rotate(-20.96) scale(.99 1)"><tspan x="0" y="0">T</tspan></text>
    <text class="cls-1" transform="translate(344.53 359.94) rotate(-28.78) scale(.99 1)"><tspan x="0" y="0">a</tspan></text>
    <text class="cls-1" transform="translate(359.5 351.49) rotate(-33.14) scale(.99 1)"><tspan x="0" y="0">l</tspan></text>
    <text class="cls-1" transform="translate(367.65 346.29) rotate(-37.54) scale(.99 1)"><tspan x="0" y="0">e</tspan></text>
    <text class="cls-1" transform="translate(381.54 335.43) rotate(-42.61) scale(.99 1)"><tspan x="0" y="0">s</tspan></text>
    <text class="cls-1" transform="translate(391.83 325.9) rotate(-47.24) scale(.99 1)"><tspan x="0" y="0"> </tspan></text>
    <text class="cls-1" transform="translate(402.38 314.65) rotate(-53.45) scale(.99 1)"><tspan x="0" y="0">~</tspan></text>
    <path class="cls-6" d="M293.22,32.15c-.52,3.21-1.49,6.28-2.83,9.15-1.43,3.06-3.3,5.88-5.51,8.38h0c-1.52,1.73-3.19,3.29-5.02,4.68-4.52,3.44-9.89,5.79-15.71,6.64-1.6.23-3.23.36-4.89.36-2.75,0-5.42-.33-7.99-.96-4.05-.98-7.83-2.71-11.19-5-2.51-1.72-4.79-3.76-6.78-6.07-2.51-2.92-4.56-6.26-6-9.9-.64-1.57-1.15-3.21-1.54-4.88,2.55-.6,5.13-1.13,7.73-1.62,6.95-1.29,14.04-2.16,21.25-2.6,3.58-.22,7.2-.33,10.83-.33s7.25.11,10.83.33c.68.04,1.36.09,2.04.14,4.98.36,9.91.92,14.78,1.7Z"/>
  </g>
</svg>